<?xml version="1.0" encoding="utf-8"?>
<!-- Generator: Adobe Illustrator 27.0.1, SVG Export Plug-In . SVG Version: 6.00 Build 0)  -->
<svg version="1.1" id="Layer_1" xmlns="http://www.w3.org/2000/svg" xmlns:xlink="http://www.w3.org/1999/xlink" x="0px" y="0px"
	 viewBox="0 0 477 151.8" style="enable-background:new 0 0 477 151.8;" xml:space="preserve">
<style type="text/css">
	.st0{fill:#212E36;}
</style>
<g>
	<g>
		<g>
			<g>
				<path class="st0" d="M202.7,25.3c15.6,0,20.9,6.3,20.9,19.7v9.7c0,11.3-4.8,15.4-9.4,17.1c5.2,1.9,10.9,4.5,10.9,16.7v15.8
					c0,13.7-7.2,22.2-22.4,22.2H172V25.3H202.7z M189.8,66.4h8.2c6,0,8.2-3,8.2-9.7V48c0-6.7-2.2-9.1-8.3-9.1h-8V66.4z M189.8,112.2
					h8.4c6.4,0,8.6-2.6,8.6-9.8V90.2c0-7.1-2.4-8.6-8.8-8.6h-8.2V112.2z"/>
				<g>
					<path class="st0" d="M274.2,71.8c4.6-1.4,10.2-5.7,10.2-16.3v-11c0-13.5-6.5-19.2-19.6-19.2H233v101.2h17.8V81.6h7.5
						c6,0,8.3,3,8.3,9.9v35h17.8v-38C284.4,78.2,279.5,73.9,274.2,71.8z M266.6,57.1c0,6.5-2.2,10.1-8.3,10.1h-7.5V38.9h7.5
						c6.1,0,8.3,2.6,8.3,9.5V57.1z"/>
				</g>
				<path class="st0" d="M293.4,126.5V25.3h18.1v101.2H293.4z"/>
				<path class="st0" d="M427.2,25.3H451v101.2h-15.8v-80l-15.1,80h-9.5l-15-80v80h-15.4V25.3h24.2l11.4,62.3L427.2,25.3z"/>
				<path class="st0" d="M460.7,27.3v-2h6.4v2h-2V38h-2.3V27.3H460.7z"/>
				<path class="st0" d="M472,38l-1.2-6c-0.4-1.8-0.5-2.9-0.7-4c0.1,1.4,0.1,2.6,0.1,4.4V38h-1.9V25.3h3l0.9,4.5
					c0.3,1.5,0.4,2.3,0.6,3.3c0.1-1,0.3-1.8,0.5-3.3l0.9-4.5h3V38h-2v-5.6c0-1.8,0-3,0.1-4.4c-0.2,1.1-0.4,2.2-0.7,3.9l-1.2,6.1H472
					z"/>
			</g>
			<path class="st0" d="M125.6,101.7c0,27.7-44.6,50.1-99.5,50.1v-51.5c36.2,0,67.8-9.8,85.3-24.4
				C120.3,83.4,125.6,92.2,125.6,101.7z"/>
			<path class="st0" d="M111.3,75.9C93.9,61.3,62.2,51.6,26.1,51.6V0c54.9,0,99.5,22.4,99.5,50.1C125.6,59.6,120.3,68.4,111.3,75.9z
				"/>
			<path class="st0" d="M356.9,126.5h15.9L358.5,25.3h-24.9l-14.3,101.2h15.9l2.5-18.6h16.7L356.9,126.5z M339.7,92.8l6.4-47.5
				l6.4,47.5H339.7z"/>
		</g>
	</g>
</g>
</svg>
