<?xml version="1.0" encoding="UTF-8"?>
<svg xmlns="http://www.w3.org/2000/svg" xmlns:xlink="http://www.w3.org/1999/xlink" width="494.906" height="39.0591" viewBox="0 0 494.906 39.0591">
<path fill-rule="nonzero" fill="rgb(17.64679%, 16.470337%, 15.293884%)" fill-opacity="1" d="M 48.628906 13.050781 L 48.628906 13.449219 L 38.414062 13.449219 C 38.246094 12.292969 37.527344 9.898438 29.339844 9.898438 L 28.664062 9.898438 C 21.066406 9.898438 20.515625 11.214844 20.515625 12.453125 C 20.515625 13.691406 21.316406 14.925781 27.777344 15.007812 L 33.054688 15.085938 C 44.875 15.328125 49.644531 18.003906 49.644531 23.910156 L 49.644531 24.46875 C 49.644531 29.378906 47.027344 34.410156 31.238281 34.410156 L 28.324219 34.410156 C 11.863281 34.410156 9.964844 27.703125 9.964844 23.792969 L 9.964844 23.351562 L 20.21875 23.351562 C 20.347656 25.109375 21.445312 28.0625 29.550781 28.0625 L 30.140625 28.0625 C 38.414062 28.0625 39.34375 26.503906 39.34375 24.910156 C 39.34375 23.191406 38.371094 22.074219 31.113281 21.914062 L 25.707031 21.792969 C 13.972656 21.476562 10.386719 17.722656 10.386719 13.089844 L 10.386719 12.730469 C 10.386719 8.300781 13.214844 3.667969 27.480469 3.667969 L 30.394531 3.667969 C 45.25 3.667969 48.628906 8.578125 48.628906 13.050781 "/>
<path fill-rule="nonzero" fill="rgb(17.64679%, 16.470337%, 15.293884%)" fill-opacity="1" d="M 51.90625 33.863281 L 61.714844 33.863281 L 61.714844 4.171875 L 51.90625 4.171875 Z M 51.90625 33.863281 "/>
<path fill-rule="nonzero" fill="rgb(17.64679%, 16.470337%, 15.293884%)" fill-opacity="1" d="M 65.003906 4.171875 L 65.003906 33.863281 L 96.597656 33.863281 L 96.597656 26.480469 L 74.820312 26.480469 L 74.820312 4.171875 Z M 65.003906 4.171875 "/>
<path fill-rule="nonzero" fill="rgb(17.64679%, 16.470337%, 15.293884%)" fill-opacity="1" d="M 126.574219 4.171875 C 135.566406 4.171875 138.054688 7.445312 138.054688 10.957031 L 138.054688 11.515625 C 138.054688 15.34375 134.59375 16.902344 133.074219 17.300781 C 135.226562 17.820312 139.832031 19.578125 139.832031 24.761719 L 139.832031 25.324219 C 139.832031 30.03125 137.003906 33.863281 126.824219 33.863281 L 99.675781 33.863281 L 99.675781 4.171875 Z M 109.515625 15.265625 L 124.882812 15.265625 C 127.628906 15.265625 128.304688 14.066406 128.304688 12.871094 L 128.304688 12.792969 C 128.304688 11.554688 127.628906 10.4375 124.882812 10.4375 L 109.515625 10.4375 Z M 109.515625 27.398438 L 125.726562 27.398438 C 129.023438 27.398438 129.613281 25.679688 129.613281 24.484375 L 129.613281 24.324219 C 129.613281 23.050781 128.980469 21.570312 125.726562 21.570312 L 109.515625 21.570312 Z M 109.515625 27.398438 "/>
<path fill-rule="nonzero" fill="rgb(17.64679%, 16.470337%, 15.293884%)" fill-opacity="1" d="M 141.867188 4.171875 L 141.867188 33.867188 L 173.578125 33.867188 L 173.578125 26.480469 L 151.722656 26.480469 L 151.722656 4.171875 Z M 141.867188 4.171875 "/>
<path fill-rule="nonzero" fill="rgb(17.64679%, 16.470337%, 15.293884%)" fill-opacity="1" d="M 176.277344 4.171875 L 176.277344 33.886719 L 233.246094 33.886719 L 233.246094 4.171875 Z M 186.136719 11.53125 L 223.429688 11.53125 L 223.429688 26.40625 L 186.136719 26.40625 Z M 186.136719 11.53125 "/>
<path fill-rule="nonzero" fill="rgb(17.64679%, 16.470337%, 15.293884%)" fill-opacity="1" d="M 266.335938 4.226562 L 257.484375 12.917969 L 248.628906 4.226562 L 235.476562 4.226562 L 250.738281 18.894531 L 235.140625 33.886719 L 247.238281 33.886719 L 256.765625 24.675781 L 266.378906 33.886719 L 278.734375 33.886719 L 263.34375 18.695312 L 278.394531 4.226562 Z M 266.335938 4.226562 "/>
<path fill-rule="nonzero" fill="rgb(17.64679%, 16.470337%, 15.293884%)" fill-opacity="1" d="M 308.988281 4.226562 L 300.136719 12.917969 L 291.28125 4.226562 L 278.128906 4.226562 L 293.390625 18.894531 L 277.789062 33.886719 L 289.890625 33.886719 L 299.417969 24.675781 L 309.03125 33.886719 L 321.386719 33.886719 L 305.996094 18.695312 L 321.046875 4.226562 Z M 308.988281 4.226562 "/>
<path fill-rule="nonzero" fill="rgb(17.64679%, 16.470337%, 15.293884%)" fill-opacity="1" d="M 376.59375 21.742188 L 370.828125 10.566406 L 365.300781 21.742188 Z M 382.84375 33.914062 L 380.039062 28.46875 L 361.976562 28.46875 L 359.292969 33.914062 L 349.800781 33.914062 L 364.859375 4.121094 L 376.957031 4.121094 L 392.894531 33.914062 Z M 382.84375 33.914062 "/>
<path fill-rule="nonzero" fill="rgb(17.64679%, 16.470337%, 15.293884%)" fill-opacity="1" d="M 411.140625 34.4375 L 408.375 34.4375 C 405.414062 34.4375 402.824219 34.183594 400.609375 33.675781 C 398.390625 33.167969 396.683594 32.554688 395.480469 31.832031 C 394.28125 31.113281 393.324219 30.238281 392.617188 29.210938 C 391.910156 28.183594 391.457031 27.253906 391.257812 26.425781 C 391.058594 25.597656 390.957031 24.71875 390.957031 23.78125 L 390.957031 23.34375 L 400.6875 23.34375 C 400.902344 26.492188 403.851562 28.070312 409.539062 28.070312 L 410.097656 28.070312 C 411.96875 28.070312 413.515625 27.980469 414.742188 27.808594 C 415.972656 27.636719 416.867188 27.386719 417.425781 27.066406 C 417.988281 26.746094 418.363281 26.421875 418.550781 26.085938 C 418.734375 25.753906 418.828125 25.359375 418.828125 24.90625 C 418.828125 24.265625 418.667969 23.757812 418.347656 23.382812 C 418.027344 23.007812 417.28125 22.683594 416.105469 22.402344 C 414.929688 22.121094 413.234375 21.953125 411.019531 21.902344 L 405.894531 21.78125 C 396.203125 21.515625 391.355469 18.601562 391.355469 13.050781 L 391.355469 12.691406 C 391.355469 11.730469 391.476562 10.839844 391.71875 10.027344 C 391.957031 9.210938 392.4375 8.398438 393.160156 7.582031 C 393.878906 6.769531 394.820312 6.082031 395.980469 5.523438 C 397.144531 4.960938 398.710938 4.5 400.6875 4.140625 C 402.664062 3.78125 404.957031 3.601562 407.574219 3.601562 L 410.339844 3.601562 C 413.0625 3.601562 415.464844 3.785156 417.546875 4.160156 C 419.628906 4.535156 421.292969 5.015625 422.535156 5.601562 C 423.777344 6.191406 424.789062 6.910156 425.578125 7.765625 C 426.363281 8.617188 426.90625 9.464844 427.199219 10.308594 C 427.492188 11.148438 427.640625 12.050781 427.640625 13.011719 L 427.640625 13.410156 L 417.949219 13.410156 C 417.894531 13.089844 417.820312 12.816406 417.726562 12.589844 C 417.632812 12.363281 417.414062 12.0625 417.066406 11.6875 C 416.71875 11.316406 416.265625 11.007812 415.707031 10.765625 C 415.144531 10.527344 414.308594 10.3125 413.203125 10.128906 C 412.09375 9.941406 410.804688 9.847656 409.339844 9.847656 L 408.695312 9.847656 C 406.453125 9.847656 404.730469 9.988281 403.53125 10.265625 C 402.328125 10.546875 401.601562 10.839844 401.347656 11.148438 C 401.09375 11.457031 400.96875 11.875 400.96875 12.410156 C 400.96875 12.917969 401.109375 13.332031 401.390625 13.652344 C 401.667969 13.972656 402.335938 14.265625 403.390625 14.53125 C 404.445312 14.800781 405.933594 14.945312 407.855469 14.972656 L 412.863281 15.054688 C 418.414062 15.160156 422.425781 15.914062 424.898438 17.316406 C 427.367188 18.714844 428.601562 20.914062 428.601562 23.902344 L 428.601562 24.464844 C 428.601562 25.558594 428.480469 26.539062 428.238281 27.410156 C 428 28.277344 427.503906 29.164062 426.757812 30.070312 C 426.011719 30.980469 425.015625 31.738281 423.777344 32.351562 C 422.535156 32.96875 420.839062 33.46875 418.6875 33.855469 C 416.539062 34.242188 414.023438 34.4375 411.140625 34.4375 "/>
<path fill-rule="nonzero" fill="rgb(17.64679%, 16.470337%, 15.293884%)" fill-opacity="1" d="M 440.117188 33.914062 L 430.789062 33.914062 L 430.789062 4.121094 L 440.117188 4.121094 Z M 440.117188 33.914062 "/>
<path fill-rule="nonzero" fill="rgb(17.64679%, 16.470337%, 15.293884%)" fill-opacity="1" d="M 468.550781 21.742188 L 462.785156 10.566406 L 457.257812 21.742188 Z M 474.800781 33.914062 L 471.996094 28.46875 L 453.933594 28.46875 L 451.25 33.914062 L 441.757812 33.914062 L 456.816406 4.121094 L 468.914062 4.121094 L 484.851562 33.914062 Z M 474.800781 33.914062 "/>
<path fill-rule="nonzero" fill="rgb(97.648621%, 86.158752%, 2.079773%)" fill-opacity="1" d="M 352.507812 4.121094 L 337.449219 33.914062 L 327.382812 33.867188 L 342.441406 4.121094 Z M 352.507812 4.121094 "/>
</svg>
